<svg xmlns="http://www.w3.org/2000/svg" xmlns:xlink="http://www.w3.org/1999/xlink" width="1920" zoomAndPan="magnify" viewBox="0 0 1440 809.999993" height="1080" preserveAspectRatio="xMidYMid meet" version="1.2"><defs/><g id="97fb94632b"><g style="fill:#ffffff;fill-opacity:1;"><g transform="translate(235.038524, 545.234935)"><path style="stroke:none" d="M 329.15625 -5.59375 L 329.15625 0 L 201.171875 0.40625 L 201.171875 -5.59375 L 220.78125 -19.59375 C 220.78125 -19.59375 219.507812 -23.054688 216.96875 -29.984375 C 214.4375 -36.921875 211.035156 -46.253906 206.765625 -57.984375 C 202.503906 -69.722656 197.707031 -82.523438 192.375 -96.390625 L 98.390625 -96.390625 C 98.921875 -80.117188 100.785156 -65.25 103.984375 -51.78125 C 107.179688 -38.320312 112.113281 -27.523438 118.78125 -19.390625 C 125.445312 -11.265625 134.25 -6.800781 145.1875 -6 C 145.445312 -4.664062 145.441406 -3.53125 145.171875 -2.59375 C 144.910156 -1.664062 144.914062 -0.9375 145.1875 -0.40625 C 144.65625 -0.40625 140.921875 -0.40625 133.984375 -0.40625 C 127.046875 -0.40625 118.378906 -0.40625 107.984375 -0.40625 C 97.585938 -0.40625 86.65625 -0.40625 75.1875 -0.40625 C 63.726562 -0.40625 52.929688 -0.40625 42.796875 -0.40625 C 32.660156 -0.40625 24.328125 -0.40625 17.796875 -0.40625 C 11.265625 -0.40625 7.863281 -0.40625 7.59375 -0.40625 C 7.59375 -1.195312 7.59375 -1.992188 7.59375 -2.796875 C 7.59375 -3.597656 7.59375 -4.664062 7.59375 -6 C 17.726562 -10.269531 26.460938 -15.867188 33.796875 -22.796875 C 41.128906 -29.734375 47.796875 -39.398438 53.796875 -51.796875 C 59.796875 -64.191406 66.0625 -80.585938 72.59375 -100.984375 C 79.125 -121.378906 86.722656 -147.109375 95.390625 -178.171875 C 104.054688 -209.242188 114.519531 -246.910156 126.78125 -291.171875 L 225.96875 -290.765625 L 225.578125 -285.171875 L 200.375 -272.375 L 301.5625 -18.796875 Z M 98.390625 -103.59375 L 189.578125 -103.59375 C 183.179688 -120.382812 176.710938 -137.710938 170.171875 -155.578125 C 163.640625 -173.441406 157.507812 -190.101562 151.78125 -205.5625 C 146.050781 -221.03125 141.382812 -233.628906 137.78125 -243.359375 C 134.1875 -253.097656 132.253906 -258.234375 131.984375 -258.765625 C 130.117188 -265.703125 128.648438 -269.035156 127.578125 -268.765625 C 126.515625 -268.503906 125.179688 -265.707031 123.578125 -260.375 C 116.378906 -234.507812 110.378906 -207.84375 105.578125 -180.375 C 100.785156 -152.914062 98.390625 -127.320312 98.390625 -103.59375 Z M 98.390625 -103.59375 "/></g></g><g style="fill:#ffffff;fill-opacity:1;"><g transform="translate(581.80328, 545.234935)"><path style="stroke:none" d="M 109.59375 -5.59375 L 109.59375 0 C 109.59375 0 105.054688 0 95.984375 0 C 86.921875 0 73.722656 0 56.390625 0 C 39.054688 0 25.585938 0 15.984375 0 C 6.390625 0 1.59375 0 1.59375 0 L 1.59375 -5.59375 L 22.796875 -18.390625 L 22.796875 -293.5625 L 4.40625 -305.96875 L 4.40625 -311.5625 C 4.40625 -311.5625 7.335938 -311.628906 13.203125 -311.765625 C 19.066406 -311.898438 26.0625 -311.96875 34.1875 -311.96875 C 42.320312 -311.96875 49.722656 -311.96875 56.390625 -311.96875 C 60.390625 -311.96875 64.1875 -311.96875 67.78125 -311.96875 C 71.382812 -311.96875 74.519531 -311.96875 77.1875 -311.96875 C 81.457031 -311.695312 84.859375 -310.425781 87.390625 -308.15625 C 89.921875 -305.894531 91.054688 -302.5 90.796875 -297.96875 C 90.796875 -296.363281 90.796875 -290.09375 90.796875 -279.15625 C 90.796875 -268.226562 90.796875 -254.363281 90.796875 -237.5625 C 90.796875 -220.769531 90.796875 -202.570312 90.796875 -182.96875 C 90.796875 -163.375 90.796875 -143.910156 90.796875 -124.578125 C 90.796875 -105.253906 90.796875 -87.59375 90.796875 -71.59375 C 90.796875 -55.59375 90.796875 -42.722656 90.796875 -32.984375 C 90.796875 -23.253906 90.796875 -18.390625 90.796875 -18.390625 Z M 109.59375 -5.59375 "/></g></g><g style="fill:#ffffff;fill-opacity:1;"><g transform="translate(712.99001, 545.234935)"><path style="stroke:none" d="M 93.984375 -216.375 C 104.390625 -222.238281 115.585938 -225.90625 127.578125 -227.375 C 139.578125 -228.84375 149.84375 -228.507812 158.375 -226.375 C 158.375 -226.101562 158.304688 -223.769531 158.171875 -219.375 C 158.046875 -214.976562 157.984375 -209.578125 157.984375 -203.171875 C 157.984375 -196.773438 157.914062 -190.375 157.78125 -183.96875 C 157.644531 -177.570312 157.578125 -172.175781 157.578125 -167.78125 C 157.578125 -163.382812 157.578125 -161.050781 157.578125 -160.78125 C 156.242188 -161.3125 154.046875 -163.507812 150.984375 -167.375 C 147.921875 -171.25 144.390625 -175.984375 140.390625 -181.578125 C 136.390625 -187.179688 132.390625 -192.644531 128.390625 -197.96875 C 124.390625 -203.300781 120.722656 -207.769531 117.390625 -211.375 C 114.054688 -214.976562 111.320312 -216.78125 109.1875 -216.78125 C 101.988281 -215.707031 96.921875 -211.304688 93.984375 -203.578125 C 93.984375 -196.640625 93.984375 -187.238281 93.984375 -175.375 C 93.984375 -163.507812 93.984375 -150.644531 93.984375 -136.78125 C 93.984375 -122.914062 94.050781 -109.050781 94.1875 -95.1875 C 94.320312 -81.320312 94.390625 -68.585938 94.390625 -56.984375 C 94.390625 -45.390625 94.390625 -36.054688 94.390625 -28.984375 C 94.390625 -21.921875 94.390625 -18.390625 94.390625 -18.390625 L 112.78125 -5.59375 L 112.78125 0.40625 L 5.203125 0.40625 L 4.796875 -5.59375 L 26 -18.390625 L 26 -209.96875 L 7.59375 -221.96875 L 7.59375 -227.96875 C 7.59375 -227.96875 9.859375 -227.96875 14.390625 -227.96875 C 18.929688 -227.96875 24.664062 -227.96875 31.59375 -227.96875 C 38.53125 -227.96875 45.53125 -227.96875 52.59375 -227.96875 C 59.65625 -227.96875 65.851562 -227.96875 71.1875 -227.96875 C 76.519531 -227.96875 79.722656 -227.96875 80.796875 -227.96875 C 89.054688 -227.96875 93.453125 -224.101562 93.984375 -216.375 Z M 93.984375 -216.375 "/></g></g><g style="fill:#ffffff;fill-opacity:1;"><g transform="translate(884.972547, 545.234935)"><path style="stroke:none" d="M 103.1875 -18.390625 L 121.578125 -5.59375 L 121.578125 0.40625 C 103.984375 0.132812 86.117188 0 67.984375 0 C 49.859375 0 31.726562 0 13.59375 0 L 13.59375 -5.59375 L 34.796875 -18.390625 L 34.796875 -209.578125 L 16.390625 -221.578125 L 16.390625 -227.578125 C 16.390625 -227.578125 18.65625 -227.578125 23.1875 -227.578125 C 27.726562 -227.578125 33.460938 -227.578125 40.390625 -227.578125 C 47.328125 -227.578125 54.328125 -227.578125 61.390625 -227.578125 C 68.453125 -227.578125 74.648438 -227.578125 79.984375 -227.578125 C 85.316406 -227.578125 88.519531 -227.578125 89.59375 -227.578125 C 93.59375 -227.578125 96.859375 -226.441406 99.390625 -224.171875 C 101.921875 -221.910156 103.050781 -218.507812 102.78125 -213.96875 C 102.78125 -213.4375 102.78125 -209.503906 102.78125 -202.171875 C 102.78125 -194.835938 102.78125 -185.367188 102.78125 -173.765625 C 102.78125 -162.171875 102.78125 -149.441406 102.78125 -135.578125 C 102.78125 -121.710938 102.847656 -107.914062 102.984375 -94.1875 C 103.117188 -80.457031 103.1875 -67.859375 103.1875 -56.390625 C 103.1875 -44.929688 103.1875 -35.734375 103.1875 -28.796875 C 103.1875 -21.859375 103.1875 -18.390625 103.1875 -18.390625 Z M 99.1875 -303.96875 C 99.1875 -295.4375 96.1875 -288.171875 90.1875 -282.171875 C 84.1875 -276.171875 76.921875 -273.171875 68.390625 -273.171875 C 60.128906 -273.171875 53 -276.171875 47 -282.171875 C 41 -288.171875 38 -295.4375 38 -303.96875 C 38 -312.5 41 -319.695312 47 -325.5625 C 53 -331.425781 60.128906 -334.359375 68.390625 -334.359375 C 76.921875 -334.359375 84.1875 -331.425781 90.1875 -325.5625 C 96.1875 -319.695312 99.1875 -312.5 99.1875 -303.96875 Z M 99.1875 -303.96875 "/></g></g><g style="fill:#ffffff;fill-opacity:1;"><g transform="translate(1032.557562, 545.234935)"><path style="stroke:none" d="M 164.78125 -211.578125 C 164.507812 -211.046875 162.640625 -206.84375 159.171875 -198.96875 C 155.710938 -191.101562 151.179688 -181.035156 145.578125 -168.765625 C 139.984375 -156.503906 133.851562 -143.109375 127.1875 -128.578125 C 120.519531 -114.046875 113.921875 -99.515625 107.390625 -84.984375 C 100.859375 -70.453125 94.859375 -57.1875 89.390625 -45.1875 C 83.921875 -33.195312 79.519531 -23.535156 76.1875 -16.203125 C 72.851562 -8.867188 71.1875 -5.203125 71.1875 -5.203125 C 84.519531 -5.203125 97.914062 -7.734375 111.375 -12.796875 C 124.84375 -17.859375 135.578125 -26.390625 143.578125 -38.390625 C 147.316406 -43.992188 150.25 -50.726562 152.375 -58.59375 C 154.507812 -66.457031 155.976562 -75.457031 156.78125 -85.59375 L 162.375 -85.59375 C 162.375 -80.257812 162.441406 -73.257812 162.578125 -64.59375 C 162.710938 -55.925781 162.910156 -47.054688 163.171875 -37.984375 C 163.441406 -28.921875 163.644531 -20.921875 163.78125 -13.984375 C 163.914062 -7.054688 164.113281 -2.394531 164.375 0 C 162.25 0 157.050781 0 148.78125 0 C 140.519531 0 130.519531 0 118.78125 0 C 107.050781 0 94.851562 0 82.1875 0 C 69.519531 0 57.519531 0.0664062 46.1875 0.203125 C 34.863281 0.335938 25.597656 0.40625 18.390625 0.40625 C 15.460938 0.40625 13.066406 -0.523438 11.203125 -2.390625 C 9.335938 -4.265625 9.46875 -7.734375 11.59375 -12.796875 C 12.132812 -14.128906 14.335938 -18.925781 18.203125 -27.1875 C 22.066406 -35.457031 27 -45.859375 33 -58.390625 C 39 -70.921875 45.460938 -84.519531 52.390625 -99.1875 C 59.328125 -113.851562 66.191406 -128.382812 72.984375 -142.78125 C 79.785156 -157.175781 85.984375 -170.375 91.578125 -182.375 C 97.179688 -194.375 101.71875 -203.972656 105.1875 -211.171875 C 108.65625 -218.367188 110.390625 -221.96875 110.390625 -221.96875 C 106.921875 -221.96875 102.1875 -221.703125 96.1875 -221.171875 C 90.1875 -220.640625 83.785156 -219.640625 76.984375 -218.171875 C 70.191406 -216.703125 63.992188 -214.632812 58.390625 -211.96875 C 52.523438 -209.300781 46.722656 -205.164062 40.984375 -199.5625 C 35.253906 -193.96875 30.320312 -186.4375 26.1875 -176.96875 C 22.0625 -167.507812 19.332031 -155.582031 18 -141.1875 L 12.40625 -141.1875 C 12.40625 -146.519531 12.335938 -153.914062 12.203125 -163.375 C 12.066406 -172.84375 11.863281 -182.441406 11.59375 -192.171875 C 11.332031 -201.910156 11.132812 -210.175781 11 -216.96875 C 10.863281 -223.769531 10.796875 -227.171875 10.796875 -227.171875 C 10.796875 -227.171875 14.195312 -227.171875 21 -227.171875 C 27.800781 -227.171875 36.664062 -227.171875 47.59375 -227.171875 C 58.53125 -227.171875 70.128906 -227.238281 82.390625 -227.375 C 94.648438 -227.507812 106.378906 -227.578125 117.578125 -227.578125 C 128.785156 -227.578125 138.253906 -227.578125 145.984375 -227.578125 C 153.710938 -227.578125 158.113281 -227.578125 159.1875 -227.578125 C 162.914062 -227.304688 165.046875 -225.171875 165.578125 -221.171875 C 166.109375 -217.171875 165.84375 -213.972656 164.78125 -211.578125 Z M 164.78125 -211.578125 "/></g></g></g></svg>